<?xml version="1.0" encoding="UTF-8"?>
<svg version="1.1" xmlns="http://www.w3.org/2000/svg" width="131" height="137">
<path d="M0 0 C43.23 0 86.46 0 131 0 C131 45.21 131 90.42 131 137 C87.77 137 44.54 137 0 137 C0 91.79 0 46.58 0 0 Z " fill="#FAFBFC" transform="translate(0,0)"/>
<path d="M0 0 C1.76024254 -0.01429047 1.76024254 -0.01429047 3.55604553 -0.02886963 C6.03302082 -0.04101373 8.51008893 -0.04021531 10.98706055 -0.02734375 C14.76971831 -0.01567263 18.54790831 -0.06790693 22.33007812 -0.125 C24.74088229 -0.12888541 27.15169604 -0.12901044 29.5625 -0.125 C30.68873276 -0.14544373 31.81496552 -0.16588745 32.97532654 -0.18695068 C38.44483809 -0.10649875 41.91460342 0.11433566 45.91625977 4.05761719 C46.92273271 5.2592246 47.90086332 6.48520275 48.84765625 7.734375 C49.9051401 8.96785984 50.96709789 10.19753506 52.03515625 11.421875 C52.5971875 12.081875 53.15921875 12.741875 53.73828125 13.421875 C55.42915165 15.27556995 57.14354187 17.00558752 58.95703125 18.734375 C59.50464111 19.26071533 60.05225098 19.78705566 60.61645508 20.3293457 C61.71257988 21.37543526 62.81898923 22.41087327 63.9362793 23.43432617 C67.81520607 27.15011184 67.81520607 27.15011184 67.99633789 30.41137695 C67.94727295 31.17796631 67.89820801 31.94455566 67.84765625 32.734375 C63.74372613 32.85029264 59.64021519 32.92153101 55.53515625 32.984375 C54.36791016 33.01789062 53.20066406 33.05140625 51.99804688 33.0859375 C50.87978516 33.09882812 49.76152344 33.11171875 48.609375 33.125 C47.57772217 33.14594727 46.54606934 33.16689453 45.4831543 33.18847656 C42.84765625 32.734375 42.84765625 32.734375 41.20124817 31.01751709 C39.61266615 28.3380105 39.49813467 26.84155458 39.5546875 23.75 C39.56918945 22.34814453 39.56918945 22.34814453 39.58398438 20.91796875 C39.60912109 19.94988281 39.63425781 18.98179688 39.66015625 17.984375 C39.68045898 16.50904297 39.68045898 16.50904297 39.70117188 15.00390625 C39.73646899 12.58017085 39.78577571 10.15755355 39.84765625 7.734375 C32.76316354 7.80119469 25.67923058 7.8909286 18.59521484 7.99682617 C16.18382415 8.03014165 13.77235423 8.05815268 11.36083984 8.08081055 C7.90037167 8.11423472 4.44063398 8.16654453 0.98046875 8.22265625 C-0.10289764 8.22904617 -1.18626404 8.2354361 -2.30245972 8.24201965 C-3.30334625 8.26181381 -4.30423279 8.28160797 -5.33544922 8.30200195 C-6.21925262 8.31310501 -7.10305603 8.32420807 -8.01364136 8.33564758 C-8.71941315 8.46722763 -9.42518494 8.59880768 -10.15234375 8.734375 C-12.80162724 12.70830024 -12.43248881 16.1514199 -12.41113281 20.76391602 C-12.41463745 21.68773071 -12.41814209 22.61154541 -12.42175293 23.56335449 C-12.43056686 26.62173949 -12.42472273 29.67989384 -12.41796875 32.73828125 C-12.41931538 34.85912623 -12.4212559 36.9799709 -12.42376709 39.10081482 C-12.4267178 43.54697609 -12.42242195 47.99305704 -12.41308594 52.43920898 C-12.40168453 58.1482586 -12.40825562 63.85712033 -12.42023087 69.56616306 C-12.42744495 73.94550502 -12.42516373 78.32480215 -12.41997528 82.70414543 C-12.41863789 84.80976318 -12.4202896 86.91538495 -12.42493439 89.020998 C-12.42999295 91.95885182 -12.42229912 94.89639773 -12.41113281 97.83422852 C-12.41518127 98.71064499 -12.41922974 99.58706146 -12.42340088 100.49003601 C-12.60368675 105.09090718 -12.60368675 105.09090718 -10.15234375 108.734375 C-8.2562285 109.06350385 -8.2562285 109.06350385 -6.06982422 109.05322266 C-5.2291037 109.07309235 -4.38838318 109.09296204 -3.52218628 109.11343384 C-2.61381012 109.12498505 -1.70543396 109.13653625 -0.76953125 109.1484375 C0.15987274 109.16780365 1.08927673 109.1871698 2.04684448 109.2071228 C5.02202105 109.26701185 7.99723613 109.3133411 10.97265625 109.359375 C12.98699625 109.39754621 15.00131979 109.43659743 17.015625 109.4765625 C21.959502 109.572721 26.90345542 109.6567174 31.84765625 109.734375 C33.30828475 112.38176416 33.84765625 113.62885834 33.84765625 116.734375 C27.40662757 116.86140733 20.96592323 116.94882312 14.52392578 117.0090332 C12.33369881 117.03413934 10.14355531 117.06823137 7.95361328 117.11157227 C4.80089703 117.17239407 1.64929072 117.20062423 -1.50390625 117.22265625 C-2.47913239 117.24846268 -3.45435852 117.2742691 -4.45913696 117.30085754 C-8.88531993 117.30267348 -12.12927066 117.26233925 -15.69287109 114.45385742 C-18.89115367 110.91745981 -20.40119223 108.39121716 -20.40631104 103.60450745 C-20.41195068 102.79006165 -20.41759033 101.97561584 -20.42340088 101.13648987 C-20.41935242 100.25170456 -20.41530396 99.36691925 -20.41113281 98.45532227 C-20.41463745 97.51667328 -20.41814209 96.57802429 -20.42175293 95.6109314 C-20.43055675 92.50747282 -20.42472531 89.40424216 -20.41796875 86.30078125 C-20.4193159 84.14371192 -20.42125685 81.98664288 -20.42376709 79.82957458 C-20.42671662 75.30782176 -20.42242657 70.78614794 -20.41308594 66.2644043 C-20.40169839 60.46936272 -20.4082476 54.67450654 -20.42023087 48.87947178 C-20.42745986 44.42452092 -20.42515662 39.96961397 -20.41997528 35.51466179 C-20.41864131 33.37803055 -20.42027766 31.24139533 -20.42493439 29.10476875 C-20.43001586 26.11734597 -20.4222661 23.13022276 -20.41113281 20.14282227 C-20.41518127 19.26006119 -20.41922974 18.37730011 -20.42340088 17.4677887 C-20.38213976 11.4884627 -19.78851269 7.64799523 -15.78686523 2.96777344 C-11.15702347 -0.59736087 -5.59433263 -0.01907514 0 0 Z " fill="#1B57A8" transform="translate(40.15234375,9.265625)"/>
<path d="M0 0 C5.44824826 2.48253514 9.39469206 5.53520774 12 11 C13.03584811 17.27129745 13.14124221 23.29690407 9.375 28.625 C5.14758404 33.28498876 1.27857857 35.1273307 -5 35.4375 C-9.72421273 35.28144492 -12.38952749 34.18065435 -16 31 C-20.5683337 26.05097182 -22.47282227 21.80982045 -22.2421875 14.98046875 C-21.5145386 9.03017857 -18.01582264 5.80006113 -13.62109375 2.19921875 C-9.44916816 -0.88700091 -5.00170705 -0.75524351 0 0 Z " fill="#2EACA8" transform="translate(99,96)"/>
<path d="M0 0 C3.10081379 1.36625247 5.07660944 2.88313985 7.35546875 5.37890625 C8.2834729 6.38377075 8.2834729 6.38377075 9.23022461 7.40893555 C9.87612549 8.11961182 10.52202637 8.83028809 11.1875 9.5625 C16.14201651 14.96233926 21.12013834 20.18782306 26.55859375 25.10546875 C28.40882249 27.53734121 28.11286532 29.01625691 28 32 C23.89606988 32.11591764 19.79255894 32.18715601 15.6875 32.25 C14.52025391 32.28351562 13.35300781 32.31703125 12.15039062 32.3515625 C11.03212891 32.36445312 9.91386719 32.37734375 8.76171875 32.390625 C7.73006592 32.41157227 6.69841309 32.43251953 5.63549805 32.45410156 C3 32 3 32 1.15820312 30.3828125 C-0.35716983 27.2651818 -0.34017644 24.94627259 -0.29296875 21.484375 C-0.28330078 20.23398437 -0.27363281 18.98359375 -0.26367188 17.6953125 C-0.2259668 15.74238281 -0.2259668 15.74238281 -0.1875 13.75 C-0.16719727 11.77386719 -0.16719727 11.77386719 -0.14648438 9.7578125 C-0.11112551 6.50479679 -0.06177033 3.252604 0 0 Z " fill="#4B8DDF" transform="translate(80,10)"/>
<path d="M0 0 C1.31613281 -0.04898438 2.63226563 -0.09796875 3.98828125 -0.1484375 C8.52169911 0.49303873 9.87271568 1.85783986 12.6875 5.375 C14.06875018 8.13750036 13.87829306 10.32231099 13.6875 13.375 C11.6875 15.375 11.6875 15.375 9.27319336 15.61791992 C8.28456299 15.61381104 7.29593262 15.60970215 6.27734375 15.60546875 C5.20548828 15.60353516 4.13363281 15.60160156 3.02929688 15.59960938 C1.90587891 15.58736328 0.78246094 15.57511719 -0.375 15.5625 C-2.06592773 15.5615332 -2.06592773 15.5615332 -3.79101562 15.56054688 C-12.17236683 15.51513317 -12.17236683 15.51513317 -13.3125 14.375 C-13.90218059 7.29883292 -13.90218059 7.29883292 -11.4375 3.4375 C-7.86520484 -0.02972766 -4.7641787 0.09991605 0 0 Z " fill="#165EBB" transform="translate(53.3125,48.625)"/>
<path d="M0 0 C0.76166977 0.00222061 1.52333954 0.00444122 2.30809021 0.00672913 C3.16890701 0.00680466 4.02972382 0.00688019 4.91662598 0.00695801 C5.8520372 0.01211929 6.78744843 0.01728058 7.75120544 0.02259827 C8.70422043 0.02401321 9.65723541 0.02542816 10.63912964 0.02688599 C13.69605085 0.032503 16.75289996 0.04505836 19.80979919 0.05775452 C21.87685543 0.06276733 23.94391281 0.06733061 26.01097107 0.07142639 C31.08977507 0.08247795 36.16852489 0.09975397 41.24729919 0.12025452 C41.62948687 1.77640109 41.96125021 3.44482476 42.24729919 5.12025452 C41.24729919 6.12025452 41.24729919 6.12025452 39.49459839 6.24050903 C38.73292862 6.23828842 37.97125885 6.23606781 37.18650818 6.23377991 C36.32569138 6.23370438 35.46487457 6.23362885 34.57797241 6.23355103 C33.64256119 6.22838974 32.70714996 6.22322845 31.74339294 6.21791077 C30.79037796 6.21649582 29.83736298 6.21508087 28.85546875 6.21362305 C25.79854754 6.20800604 22.74169843 6.19545067 19.68479919 6.18275452 C17.61774296 6.17774171 15.55068558 6.17317842 13.48362732 6.16908264 C8.40482332 6.15803108 3.32607349 6.14075506 -1.75270081 6.12025452 C-2.13488848 4.46410794 -2.46665182 2.79568427 -2.75270081 1.12025452 C-1.75270081 0.12025452 -1.75270081 0.12025452 0 0 Z " fill="#819ABD" transform="translate(40.75270080566406,72.87974548339844)"/>
<path d="M0 0 C0.77943466 0.00222061 1.55886932 0.00444122 2.36192322 0.00672913 C3.68317955 0.00684242 3.68317955 0.00684242 5.03112793 0.00695801 C5.98841293 0.01211929 6.94569794 0.01728058 7.93199158 0.02259827 C9.39480812 0.02472069 9.39480812 0.02472069 10.88717651 0.02688599 C14.01542675 0.03250319 17.14360656 0.04505859 20.27183533 0.05775452 C22.38706867 0.0627673 24.50230313 0.06733059 26.61753845 0.07142639 C31.81482829 0.0824782 37.01207678 0.09923305 42.20933533 0.12025452 C41.87933533 1.77025452 41.54933533 3.42025452 41.20933533 5.12025452 C27.01933533 5.12025452 12.82933533 5.12025452 -1.79066467 5.12025452 C-2.12066467 3.80025452 -2.45066467 2.48025452 -2.79066467 1.12025452 C-1.79066467 0.12025452 -1.79066467 0.12025452 0 0 Z " fill="#718DB3" transform="translate(40.79066467285156,86.87974548339844)"/>
<path d="M0 0 C3.5625 0.625 3.5625 0.625 6.5625 2.625 C8.62392268 5.71713403 8.87018115 6.27576699 8.5625 9.75 C8.09626321 11.97617565 7.5701923 13.61052038 6.5 15.625 C3.26283427 17.29579522 0.05221293 17.36928485 -3.4375 16.625 C-6.43743115 14.07505852 -7.29230459 12.49617244 -7.9375 8.625 C-7.06695304 3.40171822 -5.28636606 0.96115747 0 0 Z " fill="#1F68C6" transform="translate(52.4375,29.375)"/>
<path d="M0 0 C9.57 0 19.14 0 29 0 C29 1.65 29 3.3 29 5 C19.1 5 9.2 5 -1 5 C-0.67 3.35 -0.34 1.7 0 0 Z " fill="#7892B7" transform="translate(39,100)"/>
<path d="M0 0 C3.3 0 6.6 0 10 0 C10 3.96 10 7.92 10 12 C6.7 12 3.4 12 0 12 C0 8.04 0 4.08 0 0 Z " fill="#2A69BB" transform="translate(91,76)"/>
<path d="M0 0 C0.99 0.33 1.98 0.66 3 1 C2.46823005 5.13813705 0.22067834 7.27082318 -2.5625 10.25 C-3.38878906 11.14203125 -4.21507813 12.0340625 -5.06640625 12.953125 C-5.70449219 13.62859375 -6.34257813 14.3040625 -7 15 C-11.25899941 14.18096165 -13.17519452 12.2956064 -16 9 C-16 8.01 -16 7.02 -16 6 C-12.92463146 6.65900754 -10.92264434 7.53867783 -8 9 C-5.36 6.03 -2.72 3.06 0 0 Z " fill="#E8F4F4" transform="translate(101,106)"/>
<path d="M0 0 C3.5 0.125 3.5 0.125 4.5 1.125 C4.625 4.625 4.625 4.625 4.5 8.125 C3.5 9.125 3.5 9.125 0 9.25 C-3.5 9.125 -3.5 9.125 -4.5 8.125 C-4.625 4.625 -4.625 4.625 -4.5 1.125 C-3.5 0.125 -3.5 0.125 0 0 Z " fill="#3C9FC3" transform="translate(107.5,61.875)"/>
<path d="M0 0 C3.76687864 1.88343932 4.79421646 2.69132469 7 6 C6.19175781 6.29519531 5.38351563 6.59039063 4.55078125 6.89453125 C1.86471201 8.68700891 1.86471201 8.68700891 1.49365234 11.02880859 C1.28128854 13.59009175 1.20442015 16.11751711 1.1875 18.6875 C1.16236328 19.58017578 1.13722656 20.47285156 1.11132812 21.39257812 C1.05242662 23.59549439 1.01617246 25.79642319 1 28 C0.67 28 0.34 28 0 28 C0 18.76 0 9.52 0 0 Z " fill="#5998E5" transform="translate(80,10)"/>
<path d="M0 0 C1.98 0 3.96 0 6 0 C6 2.64 6 5.28 6 8 C4.33388095 8.042721 2.66617115 8.04063832 1 8 C0 7 0 7 -0.0625 3.4375 C-0.041875 2.303125 -0.02125 1.16875 0 0 Z " fill="#5C9CE4" transform="translate(102,48)"/>
<path d="M0 0 C1.98 0 3.96 0 6 0 C6 1.98 6 3.96 6 6 C4.02 6 2.04 6 0 6 C0 4.02 0 2.04 0 0 Z " fill="#3879C9" transform="translate(91,60)"/>
<path d="M0 0 C0.6875 1.8125 0.6875 1.8125 1 4 C-0.4375 5.75 -0.4375 5.75 -2 7 C-1.67 7.66 -1.34 8.32 -1 9 C-4.63 9 -8.26 9 -12 9 C-11.34 8.67 -10.68 8.34 -10 8 C-10 7.34 -10 6.68 -10 6 C-8.906875 5.938125 -7.81375 5.87625 -6.6875 5.8125 C-2.85667284 5.3867767 -2.85667284 5.3867767 -1.0625 2.4375 C-0.711875 1.633125 -0.36125 0.82875 0 0 Z " fill="#CBDAEF" transform="translate(60,40)"/>
<path d="M0 0 C1.65 0 3.3 0 5 0 C5 1.98 5 3.96 5 6 C3.35 6 1.7 6 0 6 C0 4.02 0 2.04 0 0 Z " fill="#31AFAB" transform="translate(106,88)"/>
<path d="M0 0 C1.65 0 3.3 0 5 0 C4.67 1.65 4.34 3.3 4 5 C2.68 4.67 1.36 4.34 0 4 C0 2.68 0 1.36 0 0 Z " fill="#47B2B7" transform="translate(110,77)"/>
<path d="M0 0 C1.32 0.33 2.64 0.66 4 1 C4 2.32 4 3.64 4 5 C2.68 5 1.36 5 0 5 C0 3.35 0 1.7 0 0 Z " fill="#1F67C1" transform="translate(92,61)"/>
</svg>
